#!OML:ASF F:\VICON\USERDATA\INSTALL\rory3\rory3.ASF
:FULLY-SPECIFIED
:DEGREES
94
root 0.5095399322690995 17.273248102510724 21.50172239234952 -2.5987601810020817 -3.043936505038694 -4.997187191578324
lfemur -18.917394648127704 -2.1975950672544506 -14.723843808719884
ltibia 21.469880592199857
lfoot -4.659371457611582 -5.192309720724877
ltoes -14.870419716284248
rfemur 4.757315972612956 5.987006357835723 30.227573792219367
rtibia 40.40405369179426
rfoot -2.7339020478216236 -9.243122013683688
rtoes 4.212345811169988
lowerback 8.415222990081894 1.6722664592526886 4.6888672117467
upperback -0.32593873400468876 2.8927907002681934 1.3188163643925175
thorax -5.478016826055675 1.3684757304796695 -1.6058854634120026
lowerneck -15.256315408822337 -2.916828019791649 -1.6647155873724615
upperneck 21.112305110730606 -3.6960851582227123 0.03638186850290656
head 9.220158165467705 -1.794170859700502 -0.29532605676702217
lclavicle -1.3885767314104632e-15 -1.8446840616138006e-15
lhumerus -34.081916452654326 5.268129049278541 80.34555463322884
lradius 31.700473892316964
lwrist 6.433935151026951
lhand -26.821879635704203 23.30598905385655
lfingers 7.125019999999999
lthumb -0.8079723773764884 52.63386766763963
rclavicle -1.389541710415014e-15 -1.8461768340991494e-15
rhumerus -26.128429456923705 -17.097212519274784 -79.43542974377769
rradius 28.56395139627094
rwrist -1.431087931901872
rhand -19.15864046228259 23.824339656040067
rfingers 7.125019999999999
rthumb 7.267823434424343 -5.79321657371118
95
root 0.6267308660929628 17.172565144804192 21.523609213368168 -3.1693437424509483 -3.1508186612309945 -4.617590014559687
lfemur -17.78329491552291 -2.0421142508225607 -15.396918007637929
ltibia 23.69587791660566
lfoot -4.950854125185326 -5.683962021892844
ltoes -15.191459569673176
rfemur 3.3600223544913757 5.734300298328198 29.15708932265185
rtibia 46.35182490057615
rfoot -2.285770244432123 -9.581700429114026
rtoes 4.9050087099066895
lowerback 9.115342967724356 1.7491726590061016 4.246481675208155
upperback -0.16254664219287432 2.852032973950545 1.1515582124947892
thorax -5.551797472616313 1.3525753149982493 -1.3496848884374268
lowerneck -15.127315362594645 -2.945238376786092 -1.6802597619024142
upperneck 21.323794337210412 -3.78634271554205 0.13682477951701658
head 9.2707575245574 -1.827703392203774 -0.309806192029929
lclavicle -1.3890586529165286e-15 -1.8451389456660483e-15
lhumerus -33.87136064618838 5.240983963755358 80.39096621231901
lradius 31.527134595344567
lwrist 6.308453786736223
lhand -26.83266678684621 23.27583349744161
lfingers 7.125019999999999
lthumb -0.809925854902656 52.64306849814712
rclavicle -1.3882785454896233e-15 -1.845005510159843e-15
rhumerus -26.170658801459147 -17.120805985589953 -79.3049916081447
rradius 28.558571351166368
rwrist -1.1826543132146279
rhand -19.149375619974393 23.697998891904238
rfingers 7.125019999999999
rthumb 7.256482463951791 -5.894334335458698
96
root 0.7796155769890183 17.247585549817735 21.28625387955379 -3.4084552645431208 -3.527785782821155 -3.7573372855002116
lfemur -16.701725591736377 -2.6841792771293047 -16.732483111954544
ltibia 25.67065812081392
lfoot -4.218218799854943 -5.667408881766921
ltoes -14.651758971175374
rfemur 1.2814622322822498 5.852805745626003 27.6832413201143
rtibia 52.55631013951966
rfoot -1.8218612287432858 -9.520698463527365
rtoes 5.6008405022388175
lowerback 9.576708926471854 1.9025449857875942 3.5704663696456946
upperback 0.1011435380795836 2.9237064246768414 0.9989021726197146
thorax -5.448881668459598 1.3894971087213859 -1.1367330733622454
lowerneck -14.988255258313123 -2.9709647417948912 -1.7137881622404145
upperneck 21.622944400395333 -3.861399893075884 0.23457301792506322
head 9.340747782762174 -1.8600920389007338 -0.31775957204722993
lclavicle -1.3890703852300727e-15 -1.8451525314156984e-15
lhumerus -33.50596029430382 5.156587770530702 80.48060147074683
lradius 31.38214468932346
lwrist 6.137588114990892
lhand -26.824454500989876 23.329350077862493
lfingers 7.125019999999999
lthumb -0.782161339570546 52.76143957948226
rclavicle -1.3864107763510472e-15 -1.8432890035822345e-15
rhumerus -26.603219323215843 -17.457802736513898 -79.13680962515939
rradius 28.45999883726649
rwrist -0.7854589406713224
rhand -19.0816758708915 23.493817583330408
rfingers 7.125019999999999
rthumb 7.291412624283015 -6.093375716888024
97
root 0.8991931503163539 17.49466262079556 21.534074834609157 -3.268972087313201 -4.106877171407207 -1.3735115267726896
lfemur -14.699559869094237 -4.535630300951913 -19.913760575149684
ltibia 26.390614109138117
lfoot -4.063503173458521 -5.452473514859789
ltoes -14.508530028694194
rfemur -2.1545010148428467 5.733680866151748 24.439189460425172
rtibia 59.07820556278429
rfoot -2.1687576774280073 -9.218253614768663
rtoes 6.01178673967349
lowerback 9.745287903380527 2.0211859032080435 2.2642402292086476
upperback 0.46416397967900913 2.805196104085811 0.6865239057871109
thorax -5.144930131621193 1.3609600486385731 -0.7984565674960307
lowerneck -14.89721485938469 -2.950948532392017 -1.7116979643829948
upperneck 21.92158991232334 -3.8415056876093137 0.2540880876135209
head 9.416542044034347 -1.8622725723359896 -0.3387665600394786
lclavicle -1.3892162800298253e-15 -1.8452929396796995e-15
lhumerus -33.28486922534126 4.897056597703262 80.51768651844367
lradius 31.39876996911022
lwrist 5.940715398260647
lhand -26.755733479391242 23.485484342709366
lfingers 7.125019999999999
lthumb -0.701668355005143 52.97380781087969
rclavicle -1.3848307105058108e-15 -1.8418008931322656e-15
rhumerus -27.154711701150404 -17.83864684867141 -78.88627993447295
rradius 28.210494823038395
rwrist -0.3393036134124916
rhand -18.950015346798978 23.220433363243984
rfingers 7.125019999999999
rthumb 7.387939448287223 -6.393011637921235
98
root 0.9577060101850712 17.779478469907293 20.530912990471446 -3.243311575069657 -4.532969474326163 0.9413523548026301
lfemur -11.368443621020242 -4.854545086918893 -23.16489100285072
ltibia 26.079183897283713
lfoot -6.226203995759508 -4.988851240085406
ltoes -15.336051732320618
rfemur -7.098405086273103 5.002946028737727 20.980761133086016
rtibia 65.39284006019165
rfoot -3.4445533712329732 -8.862566423342553
rtoes 6.251648672135689
lowerback 9.79298770776488 1.9380088815108802 0.8956296951187052
upperback 0.7080856611805504 2.4671514329159026 0.4290391260500981
thorax -4.958030334011896 1.2186687982191375 -0.419245603597312
lowerneck -14.854435332846908 -2.8914853852737297 -1.7488465852663717
upperneck 22.14689317623373 -3.7291047079498774 0.2625046390013862
head 9.491150294075611 -1.8273367668168516 -0.34594956927789916
lclavicle -1.388720500426989e-15 -1.8448270414612037e-15
lhumerus -32.8152838612898 4.7723891849412645 80.63148352847779
lradius 31.34973529835155
lwrist 5.807114319631399
lhand -26.64183197903995 23.681540049857325
lfingers 7.125019999999999
lthumb -0.5942641466039729 53.19171980010359
rclavicle -1.3852411970240672e-15 -1.8421952635111224e-15
rhumerus -27.731184422968614 -18.274340152691842 -78.70657109446012
rradius 27.88420228099768
rwrist 0.08401475978931217
rhand -18.75140030131069 22.857076565904244
rfingers 7.125019999999999
rthumb 7.559263113088576 -6.793722390511831
